<?xml version="1.0" encoding="UTF-8"?>
<svg width="120px" height="68px" viewBox="0 0 120 68" version="1.1" xmlns="http://www.w3.org/2000/svg" xmlns:xlink="http://www.w3.org/1999/xlink">
    <!-- Generator: Sketch 53.2 (72643) - https://sketchapp.com -->
    <title>Slice 1</title>
    <desc>Created with Sketch.</desc>
    <g id="Page-1" stroke="none" stroke-width="1" fill="none" fill-rule="evenodd">
        <g id="logo" fill="#FFFFFF" fill-rule="nonzero">
            <path d="M72.0564238,24.8802632 C74.1703311,24.8802632 75.9154967,26.5965789 75.9154967,28.6752632 C75.9154967,30.7539474 74.1703311,32.4702632 72.0564238,32.4702632 C69.9425166,32.4702632 68.1973509,30.7539474 68.1973509,28.6752632 C68.1973509,26.5965789 69.9425166,24.8802632 72.0564238,24.8802632 Z M72.0564238,36.5881579 C76.6339072,36.5881579 80.3078146,33.1768421 80.3078146,28.6752632 C80.3078146,24.1736842 76.6339072,20.7631579 72.0564238,20.7631579 C67.4789405,20.7631579 63.8050331,24.1736842 63.8050331,28.6752632 C63.8050331,33.1768421 67.4789405,36.5881579 72.0564238,36.5881579 Z" id="Fill-1"></path>
            <path d="M89.3745695,28.3926316 L86.5621192,28.3926316 L86.5621192,24.8194737 L89.3745695,24.8194737 C90.3178808,24.8194737 90.9345695,25.8694737 90.9345695,26.6163158 C90.9345695,27.3631579 90.3178808,28.3926316 89.3745695,28.3926316 Z M92.5350993,31.1581579 C94.0132451,30.1492105 95.1830463,28.6555263 95.1830463,26.6163158 C95.1830463,23.4473684 92.6177484,21.1057895 89.3745695,21.1057895 L82.3748345,21.1057895 L82.3748345,36.2447368 L86.5621192,36.2447368 L86.5621192,32.1268421 L88.5329801,32.1268421 L90.4418544,36.2447368 L95.1425166,36.2447368 L92.5350993,31.1581579 Z" id="Fill-2"></path>
            <path d="M27.9965563,36.1113158 L32.272053,36.1113158 L32.272053,21.2423684 L27.9965563,21.2423684 L27.9965563,36.1113158 Z M42.1986755,24.9363158 C40.1237086,24.9363158 38.4468875,26.6218421 38.4468875,28.6634211 C38.4468875,30.705 40.1237086,32.3913158 42.1986755,32.3913158 C43.5560264,32.3913158 44.7528477,31.6571053 45.4116556,30.5668421 L47.7123178,31.9381579 L51.0325828,24.8202632 L54.5054305,24.8202632 L54.5054305,36.2447368 L58.6927153,36.2447368 L58.6927153,24.8202632 L62.9006623,24.8202632 L62.9006623,21.1057895 L52.7650331,21.1057895 L62.6098014,0 L0,0 L9.90834437,21.2423684 L14.527947,21.2423684 L18.3186755,29.3692105 L22.1094039,21.2423684 L26.7385431,21.2423684 L19.8023841,36.1113158 L16.8445033,36.1113158 L31.3049007,67.1123684 L46.0982782,35.3968421 C44.9515232,36.0560526 43.6196026,36.4357895 42.1986755,36.4357895 C37.7284768,36.4357895 34.1769537,33.0852632 34.1769537,28.6634211 C34.1769537,24.2423684 37.7284768,20.8918421 42.1986755,20.8918421 C45.0524503,20.8918421 47.5470199,22.4186842 48.9035762,24.6789474 L45.4116556,26.7607895 C44.7528477,25.6910526 43.5560264,24.9363158 42.1986755,24.9363158 Z" id="Fill-5"></path>
            <polygon id="Fill-3" points="97.7245033 36.2447368 101.911788 36.2447368 101.911788 21.1057895 97.7245033 21.1057895"></polygon>
            <path d="M110.057483,30.9347368 L111.356026,27.9876316 L111.442649,27.9876316 L112.741192,30.9347368 L110.057483,30.9347368 Z M110.614569,21.1042105 L103.555232,36.2439474 L108.044503,36.2439474 L108.780397,34.5292105 L114.019073,34.5292105 L114.754172,36.2439474 L119.244238,36.2439474 L112.184901,21.1042105 L110.614569,21.1042105 Z" id="Fill-4"></path>
        </g>
    </g>
</svg>